<!DOCTYPE svg PUBLIC "-//W3C//DTD SVG 1.1//EN" "http://www.w3.org/Graphics/SVG/1.1/DTD/svg11.dtd">
<!-- Uploaded to: SVG Repo, www.svgrepo.com, Transformed by: SVG Repo Mixer Tools -->
<svg width="800px" height="800px" viewBox="0 0 25 25" fill="none" xmlns="http://www.w3.org/2000/svg">
<g id="SVGRepo_bgCarrier" stroke-width="0"/>
<g id="SVGRepo_tracerCarrier" stroke-linecap="round" stroke-linejoin="round"/>
<g id="SVGRepo_iconCarrier"> <path d="M5.5 16.5H19.5M5.5 8.5H19.5M4.5 12.5H20.5M12.5 20.5C12.5 20.5 8 18.5 8 12.5C8 6.5 12.5 4.5 12.5 4.5M12.5 4.5C12.5 4.5 17 6.5 17 12.5C17 18.5 12.5 20.5 12.5 20.5M12.5 4.5V20.5M20.5 12.5C20.5 16.9183 16.9183 20.5 12.5 20.5C8.08172 20.5 4.5 16.9183 4.5 12.5C4.5 8.08172 8.08172 4.5 12.5 4.5C16.9183 4.5 20.5 8.08172 20.5 12.5Z" stroke="#ffffff" stroke-width="1.2"/> </g>
</svg>