<svg width="170" height="170" viewBox="0 0 170 170" fill="none" xmlns="http://www.w3.org/2000/svg">
<path d="M85 0C38.131 0 0 38.131 0 85C0 131.869 38.131 170 85 170C131.869 170 170 131.869 170 85C170 38.131 131.869 0 85 0ZM152.413 76.5H128.919C127.871 57.8956 122.666 39.7627 113.688 23.4345C124.093 28.2969 133.1 35.7119 139.871 44.9897C146.642 54.2676 150.956 65.1071 152.413 76.5ZM89.505 17.2295C98.3025 28.8235 110.134 49.3595 111.834 76.5H59.755C60.9365 54.434 68.204 33.762 80.5885 17.221C82.0505 17.136 83.5125 17 85 17C86.5215 17 88.009 17.136 89.505 17.2295ZM56.848 23.1795C48.484 39.253 43.656 57.477 42.755 76.5H17.5865C19.055 65.0066 23.4314 54.0779 30.3016 44.7475C37.1718 35.4172 46.3087 27.9938 56.848 23.1795ZM17.5865 93.5H42.8655C44.0215 113.721 48.518 131.563 56.0915 146.455C45.7401 141.575 36.7857 134.166 30.0557 124.91C23.3256 115.654 19.0371 104.851 17.5865 93.5ZM80.325 152.77C68.4165 138.337 61.387 118.116 59.8485 93.5H111.809C110.041 117.071 102.314 137.666 89.6835 152.762C88.1365 152.864 86.5895 153 85 153C83.419 153 81.8805 152.864 80.325 152.77ZM114.419 146.209C122.536 130.96 127.492 113.05 128.792 93.5H152.405C150.971 104.756 146.744 115.475 140.109 124.681C133.475 133.887 124.643 141.287 114.419 146.209Z" fill="#0D0D0D"/>
</svg>
